<svg width="24" height="24" viewBox="0 0 24 24" fill="none" xmlns="http://www.w3.org/2000/svg">
<path d="M15.375 15.8808C14.7876 15.8808 14.31 15.1506 14.31 14.2536C14.31 13.356 14.7882 12.6252 15.375 12.6252C15.9618 12.6252 16.44 13.356 16.44 14.2536C16.44 15.1506 15.9624 15.8808 15.375 15.8808Z" fill="#010101"/>
<path d="M8.625 15.8808C8.0376 15.8808 7.56 15.1506 7.56 14.2536C7.56 13.356 8.0382 12.6252 8.625 12.6252C9.2118 12.6252 9.69 13.356 9.69 14.2536C9.69 15.1506 9.2124 15.8808 8.625 15.8808Z" fill="#010101"/>
<path d="M11.9784 19.2558C11.196 19.2558 10.4754 19.2258 9.8358 19.1682C9.1932 19.11 8.5512 19.0068 7.929 18.861C7.3122 18.7164 6.7548 18.525 6.2736 18.294C5.7942 18.0624 5.343 17.7606 4.932 17.3964C4.5222 17.0334 4.1796 16.6062 3.915 16.1268C3.6492 15.6486 3.438 15.075 3.288 14.4222C3.1368 13.7718 3.06 13.032 3.06 12.2208C3.06 10.7874 3.5466 9.53159 4.5042 8.48519L4.5294 8.45819L4.5162 8.42399C4.464 8.28539 4.4166 8.12759 4.3728 7.94999C4.3302 7.77299 4.2894 7.51799 4.2522 7.19159C4.2144 6.86819 4.2288 6.48719 4.2948 6.05999C4.362 5.63279 4.4868 5.18939 4.6656 4.74359C4.6638 4.75499 4.6734 4.75859 4.6896 4.75859C4.7076 4.75859 4.734 4.75379 4.764 4.74899C4.7802 4.74899 4.7964 4.74839 4.812 4.74839C4.9302 4.74839 5.0442 4.75739 5.1936 4.77239C5.4222 4.79459 5.6736 4.84559 5.94 4.92359C6.2046 5.00159 6.5574 5.14979 7.0182 5.37779C7.4748 5.60579 7.9536 5.89019 8.4396 6.22259C9.336 5.99939 10.5156 5.88179 11.9952 5.88179C13.4814 5.88179 14.6634 5.99939 15.5088 6.23099C16.0506 5.88719 16.527 5.60279 16.9728 5.37719C17.4258 5.15039 17.7822 5.00159 18.0624 4.92419C18.342 4.84619 18.5904 4.79339 18.801 4.76759C18.9276 4.75199 19.0326 4.74419 19.1154 4.74419C19.167 4.74419 19.2102 4.74719 19.2444 4.75379L19.377 4.77959C19.5126 5.18939 19.6374 5.63219 19.704 6.05999C19.7694 6.48299 19.7844 6.86399 19.7466 7.19159C19.7088 7.52099 19.668 7.77599 19.6248 7.94999C19.5822 8.12759 19.5348 8.28539 19.4814 8.42339L19.4688 8.45879L19.494 8.48579C20.4534 9.53099 20.9394 10.788 20.9394 12.2214C20.9394 13.0272 20.8626 13.7676 20.7114 14.4222C20.562 15.0726 20.349 15.6462 20.0802 16.1268C19.8114 16.6068 19.4664 17.034 19.0536 17.3964C18.639 17.7612 18.1842 18.063 17.7036 18.294C17.2188 18.5256 16.659 18.7164 16.0392 18.861C15.414 19.0068 14.7714 19.11 14.1282 19.1682C13.4886 19.2258 12.765 19.2558 11.9784 19.2558ZM8.6688 11.3724C8.5134 11.3724 8.3562 11.376 8.1948 11.382C7.8072 11.3964 7.4532 11.46 7.1424 11.5698C6.831 11.6814 6.555 11.847 6.3222 12.0624C5.5434 12.7752 5.1492 13.5726 5.1492 14.4306C5.1492 14.94 5.2134 15.3972 5.3406 15.7914C5.4684 16.1844 5.634 16.5204 5.8332 16.7898C6.0342 17.0592 6.3168 17.292 6.6726 17.4804C7.0212 17.6652 7.368 17.8104 7.704 17.9124C8.0364 18.012 8.469 18.0912 8.9916 18.1482C9.5154 18.204 9.9846 18.2376 10.3866 18.249C10.7958 18.261 11.3136 18.2658 11.9424 18.2658C12.5706 18.2658 13.0896 18.2604 13.4976 18.249C13.9002 18.2376 14.37 18.204 14.8938 18.1482C15.4158 18.0912 15.849 18.012 16.1808 17.9124C16.5168 17.8104 16.8636 17.6652 17.2128 17.481C17.568 17.2926 17.8506 17.0598 18.051 16.7898C18.2508 16.5216 18.417 16.185 18.5436 15.7914C18.672 15.3996 18.7362 14.9412 18.7362 14.4306C18.7362 13.5594 18.342 12.762 17.5626 12.0618C17.3298 11.847 17.0538 11.6814 16.7418 11.5704C16.4316 11.4594 16.0782 11.3964 15.6906 11.382C15.5292 11.376 15.372 11.3724 15.2166 11.3724C14.9988 11.3724 14.7858 11.379 14.5788 11.391C14.2278 11.4114 13.7922 11.439 13.2762 11.4744C12.7722 11.5092 12.3234 11.5272 11.9418 11.5272C11.5608 11.5272 11.112 11.5092 10.608 11.4744C10.092 11.439 9.6564 11.412 9.3036 11.391C9.0984 11.379 8.8872 11.3724 8.6688 11.3724ZM15.2154 10.5792C15.3798 10.5792 15.5514 10.5822 15.7206 10.5882C16.1886 10.6062 16.6218 10.6854 17.0082 10.8228C17.4198 10.9692 17.7864 11.1888 18.0978 11.4756C19.0482 12.333 19.53 13.3272 19.53 14.4318C19.53 14.7432 19.5084 15.0408 19.4664 15.3162L19.5804 15.3498C19.7232 15.024 19.8438 14.652 19.9392 14.244C20.076 13.6512 20.145 12.9708 20.145 12.222C20.145 10.9752 19.7412 9.92879 18.909 9.02399L18.5544 8.63639L18.7398 8.14619C18.78 8.03759 18.819 7.90859 18.8544 7.76219C18.879 7.66499 18.9168 7.47179 18.9594 7.10279C18.9882 6.85079 18.9744 6.54119 18.9192 6.18239C18.8916 5.99999 18.8508 5.81459 18.7974 5.62559L18.7824 5.57339L18.729 5.58299C18.5946 5.60759 18.4428 5.64359 18.276 5.69159C18.123 5.73239 17.8338 5.83559 17.3304 6.08939C16.9218 6.29399 16.476 6.55979 16.0062 6.87959L15.657 7.11779L15.2994 6.99839C14.52 6.78479 13.4088 6.67619 11.9952 6.67619C10.5882 6.67619 9.48 6.78479 8.6994 6.99839L8.292 7.10999L7.9926 6.87959C7.5318 6.56639 7.0848 6.29999 6.6636 6.08939C6.1548 5.83739 5.868 5.73179 5.7168 5.68799C5.5584 5.63999 5.4084 5.60579 5.2698 5.58359L5.217 5.57519L5.2032 5.62619C5.1492 5.81399 5.1084 5.99939 5.0802 6.18179C5.025 6.54179 5.0118 6.85139 5.0406 7.10219C5.0832 7.47059 5.1216 7.66439 5.1456 7.76219C5.1816 7.90739 5.22 8.03699 5.2602 8.14559L5.4444 8.63579L5.0904 9.02339C4.2582 9.92939 3.8538 10.9752 3.8538 12.2214C3.8538 12.9654 3.9234 13.6464 4.0608 14.2434C4.1178 14.487 4.182 14.7168 4.2558 14.9322L4.3722 14.9088C4.3608 14.7528 4.3542 14.595 4.3542 14.4312C4.3542 13.3404 4.8354 12.3468 5.784 11.4792C6.0972 11.1894 6.4656 10.968 6.8766 10.8228C7.2624 10.6848 7.6956 10.6062 8.1648 10.5876C8.334 10.5816 8.5038 10.5786 8.6694 10.5786C8.901 10.5786 9.1308 10.5852 9.3516 10.5978C9.7044 10.6182 10.146 10.647 10.6626 10.6812C11.1522 10.716 11.583 10.7328 11.943 10.7328C12.303 10.7328 12.7332 10.716 13.2234 10.6812C13.7412 10.647 14.1822 10.6188 14.535 10.5978C14.7552 10.5858 14.9838 10.5792 15.2154 10.5792Z" fill="#010101"/>
</svg>
