<svg width="24" height="24" viewBox="0 0 24 24" fill="none" xmlns="http://www.w3.org/2000/svg">
<path d="M0.779348 22.9616H3.89939C4.32983 22.9616 4.67873 22.6127 4.67873 22.1822V8.54461C4.67873 8.11412 4.32983 7.76526 3.89939 7.76526H0.779348C0.348861 7.76526 0 8.11412 0 8.54461V22.1822C0 22.6126 0.348861 22.9616 0.779348 22.9616Z" fill="black"/>
<path d="M0.779348 5.3677H3.89939C4.32983 5.3677 4.67873 5.0188 4.67873 4.58835V1.81774C4.67873 1.3873 4.32983 1.03839 3.89939 1.03839H0.779348C0.348861 1.03839 0 1.3873 0 1.81774V4.58835C0 5.0188 0.348861 5.3677 0.779348 5.3677Z" fill="black"/>
<path d="M22.8261 9.34705C22.3876 8.76995 21.7411 8.29535 20.8863 7.92334C20.0315 7.5516 19.088 7.3656 18.0556 7.3656C15.9599 7.3656 14.1842 8.1654 12.7283 9.7653C12.4386 10.0836 12.228 10.014 12.228 9.58355V8.54461C12.228 8.11412 11.8791 7.76526 11.4486 7.76526H8.66155C8.23106 7.76526 7.8822 8.11412 7.8822 8.54461V22.1822C7.8822 22.6127 8.23111 22.9616 8.66155 22.9616H11.7816C12.2121 22.9616 12.5609 22.6127 12.5609 22.1822V17.4394C12.5609 15.4636 12.6802 14.1092 12.9189 13.3767C13.1574 12.6441 13.5988 12.0558 14.2426 11.6118C14.8865 11.1677 15.6135 10.9456 16.4239 10.9456C17.0566 10.9456 17.5978 11.101 18.0474 11.412C18.497 11.7228 18.8217 12.1583 19.0215 12.719C19.2214 13.2796 19.3213 14.5145 19.3213 16.4238V22.1822C19.3213 22.6126 19.6702 22.9616 20.1006 22.9616H23.2206C23.6511 22.9616 23.9999 22.6126 23.9999 22.1822V14.459C23.9999 13.0937 23.9139 12.0446 23.742 11.3121C23.5701 10.5795 23.2647 9.92447 22.8261 9.34705Z" fill="black"/>
</svg>
