<svg width="24" height="24" viewBox="0 0 24 24" fill="none" xmlns="http://www.w3.org/2000/svg">
<path d="M12.9488 11.8211C12.6502 11.9208 12.3316 11.9761 12.0001 11.9761C11.6685 11.9761 11.3499 11.9208 11.0513 11.8211C8.8823 12.1773 7.74713 13.7715 7.74713 15.7059H12.0001H16.2529C16.2529 13.7715 15.1179 12.1773 12.9488 11.8211Z" fill="black"/>
<path d="M12 11.287C13.2858 11.287 14.3277 10.2445 14.3277 8.95886V8.29853C14.3277 7.01294 13.2858 5.97076 12 5.97076C10.7142 5.97076 9.6723 7.01294 9.6723 8.29853V8.95886C9.6723 10.2445 10.7142 11.287 12 11.287Z" fill="black"/>
<path d="M17.7375 0H6.26168C4.04224 0 2.23596 1.80666 2.23596 4.02652V19.9743C2.23596 22.1942 4.04224 24 6.26168 24H15.9036H16.5212L16.958 23.564L21.3281 19.1939L21.7641 18.7575V18.14V4.02652C21.7641 1.80666 19.9578 0 17.7375 0ZM20.2733 18.1399H18.0164C16.8501 18.1399 15.9036 19.086 15.9036 20.2527V22.5092H6.26168C4.86171 22.5092 3.72677 21.3739 3.72677 19.9743V4.02652C3.72677 2.62617 4.86171 1.49077 6.26168 1.49077H17.7375C19.138 1.49077 20.2733 2.62617 20.2733 4.02652V18.1399H20.2733Z" fill="black"/>
</svg>
